PathFileType	4	(x/y/z)	S10_P20_T22
DataRate	CameraRate	NumFrames	NumMarkers	Units	OrigDataRate	OrigDataStartFrame	OrigNumFrames
240	240	10	51	mm	240	1	405
Frame#	Time	Sternum			R.Acromium			L.Acromium			Top.Head			R.ASIS			L.ASIS			R.PSIS			L.PSIS			R.Great.Tro			L.Great.Tro			R.Iliac.Crest			L.Iliac.Crest			V.Sacral			R.Thigh.Upper.Post			R.Thigh.Lower.Ant			R.Thigh.Lower.Post			R.Thigh.Upper.Ant			R.Knee.Lat			R.Knee.Med			R.Shank.Upper.Post			R.Shank.Lower.Ant			R.Shank.Lower.Post			R.Shank.Upper.Ant			R.Ankle.Lat			R.Ankle.Med			R.Heel.Upper			R.Heel.Med			R.Heel.Lat			R.Toe.Lat			R.Toe.Med			R.Toe.Tip			L.Thigh.Upper.Post			L.Thigh.Lower.Ant			L.Thigh.Lower.Post			L.Thigh.Upper.Ant			L.Knee.Lat			L.Knee.Med			L.Shank.Upper.Post			L.Shank.Lower.Ant			L.Shank.Lower.Post			L.Shank.Upper.Ant			L.Ankle.Lat			L.Ankle.Med			L.Heel.Upper			L.Heel.Med			L.Heel.Lat			L.Toe.Lat			L.Toe.Med			L.Toe.Tip			Cervical.Spine			Back			
		X1	Y1	Z1	X2	Y2	Z2	X3	Y3	Z3	X4	Y4	Z4	X5	Y5	Z5	X6	Y6	Z6	X7	Y7	Z7	X8	Y8	Z8	X9	Y9	Z9	X10	Y10	Z10	X11	Y11	Z11	X12	Y12	Z12	X13	Y13	Z13	X14	Y14	Z14	X15	Y15	Z15	X16	Y16	Z16	X17	Y17	Z17	X18	Y18	Z18	X19	Y19	Z19	X20	Y20	Z20	X21	Y21	Z21	X22	Y22	Z22	X23	Y23	Z23	X24	Y24	Z24	X25	Y25	Z25	X26	Y26	Z26	X27	Y27	Z27	X28	Y28	Z28	X29	Y29	Z29	X30	Y30	Z30	X31	Y31	Z31	X32	Y32	Z32	X33	Y33	Z33	X34	Y34	Z34	X35	Y35	Z35	X36	Y36	Z36	X37	Y37	Z37	X38	Y38	Z38	X39	Y39	Z39	X40	Y40	Z40	X41	Y41	Z41	X42	Y42	Z42	X43	Y43	Z43	X44	Y44	Z44	X45	Y45	Z45	X46	Y46	Z46	X47	Y47	Z47	X48	Y48	Z48	X49	Y49	Z49	X50	Y50	Z50	X51	Y51	Z51	

1	0	NaN	NaN	NaN	-1457.6	1434.7	473.38	-1491.6	1460.1	176.18	-1503.2	1748.8	345.65	NaN	NaN	NaN	NaN	NaN	NaN	-1611.7	1032.9	346.11	-1608.3	1043.5	265.36	-1490.6	919.37	500.93	NaN	NaN	NaN	-1502.4	1080.7	479.94	NaN	NaN	NaN	-1632.6	1005.1	308.07	NaN	NaN	NaN	NaN	NaN	NaN	NaN	NaN	NaN	NaN	NaN	NaN	NaN	NaN	NaN	-1622.3	529.43	297.05	-1752.7	328.73	426.22	-1709.4	247.84	402.83	-1780.1	260.21	417.2	-1678.3	314.92	413.04	-1800.5	153.06	394.74	-1794.6	164.14	316.42	NaN	NaN	NaN	-1879.3	90.443	324.94	NaN	NaN	NaN	-1712.9	49.195	423.48	-1688.9	48.287	314.17	-1629	52.829	353.92	-1441.5	683.91	139.72	-1347.7	625.51	161.35	-1417.4	593.01	159.64	NaN	NaN	NaN	-1355.4	522.65	169.25	-1349.9	522.17	301.82	-1338.5	300.73	172.76	-1243.1	244.98	182.11	-1307.3	230.32	185.03	-1274.9	314.42	175.95	-1227.1	122.46	200.12	-1219.3	143.55	283.81	-1275.3	68.572	245.91	-1252.8	46.562	280.87	-1254.3	42.712	216.19	-1087.3	100.45	181.91	NaN	NaN	NaN	-1027.4	158.54	241.13	-1552.1	1496.6	343.25	-1638.2	1289.1	341.83
2	0.0041667	NaN	NaN	NaN	-1453	1434.1	473.01	-1486.5	1459.6	175.77	-1498.4	1748.2	345.46	NaN	NaN	NaN	NaN	NaN	NaN	-1606.5	1032.3	345.79	-1603.1	1042.8	265.04	-1485.6	919.04	500.76	NaN	NaN	NaN	-1497.2	1080.1	479.68	NaN	NaN	NaN	-1627.4	1004.5	307.77	NaN	NaN	NaN	NaN	NaN	NaN	NaN	NaN	NaN	NaN	NaN	NaN	NaN	NaN	NaN	-1616.9	528.88	296.99	-1748.7	329.46	426.45	-1706.4	248.6	402.94	-1777.3	261.37	417.32	-1675.1	315.25	412.91	-1799	154.5	394.92	-1792.9	165.41	316.64	NaN	NaN	NaN	-1878.2	92.797	325	NaN	NaN	NaN	-1710.8	50.091	422.5	-1688.5	48.248	314.32	-1628.3	52.973	353.61	-1435.6	683.34	139.74	-1342	625.02	161.8	-1411.7	592.51	159.85	NaN	NaN	NaN	-1349.9	522.13	169.78	-1344.4	521.77	302.19	-1334	300.08	173.16	-1239.1	243.84	183.57	-1303.2	229.49	185.45	-1270.4	313.41	176.61	-1223.9	121.56	200.5	-1216.2	142.16	284.36	-1272.3	68.022	246.11	-1250.1	45.78	281.06	-1251.5	42.174	216.38	-1084.1	98.986	182.95	NaN	NaN	NaN	-1024.2	156.61	242.53	-1547.3	1496	342.78	-1633.2	1288.5	341.25
3	0.0083333	NaN	NaN	NaN	-1448.2	1433.5	472.63	-1481.2	1459.1	175.35	-1493.5	1747.7	345.27	NaN	NaN	NaN	NaN	NaN	NaN	-1601.1	1031.7	345.45	-1597.7	1042.1	264.71	-1480.3	918.69	500.57	NaN	NaN	NaN	-1491.7	1079.5	479.41	NaN	NaN	NaN	-1621.9	1003.8	307.46	NaN	NaN	NaN	NaN	NaN	NaN	NaN	NaN	NaN	NaN	NaN	NaN	NaN	NaN	NaN	-1611.2	528.28	296.94	-1744.6	330.24	426.68	-1703.1	249.37	403.06	-1774.4	262.58	417.45	-1671.6	315.59	412.79	-1797.3	156.03	395.12	-1791	166.76	316.86	NaN	NaN	NaN	-1877	95.301	325.06	NaN	NaN	NaN	-1708.7	51.064	421.55	-1688.2	48.206	314.47	-1627.5	53.113	353.3	-1429.5	682.75	139.77	-1335.9	624.52	162.24	-1405.7	591.98	160.09	NaN	NaN	NaN	-1344.1	521.59	170.34	-1338.7	521.37	302.58	-1329.3	299.41	173.57	-1235	242.66	185.02	-1299	228.63	185.87	-1265.7	312.37	177.3	-1220.6	120.62	200.89	-1213	140.7	284.93	-1269.2	67.51	246.33	-1247.5	45.008	281.25	-1248.7	41.662	216.56	-1081	97.353	183.99	NaN	NaN	NaN	-1020.9	154.44	243.94	-1542.4	1495.5	342.3	-1628	1287.8	340.64
4	0.0125	NaN	NaN	NaN	-1443.2	1432.9	472.22	-1475.7	1458.5	174.9	-1488.5	1747.1	345.06	NaN	NaN	NaN	NaN	NaN	NaN	-1595.5	1031	345.1	-1592	1041.4	264.36	-1474.9	918.33	500.37	NaN	NaN	NaN	-1486	1078.9	479.11	NaN	NaN	NaN	-1616.2	1003	307.14	NaN	NaN	NaN	NaN	NaN	NaN	NaN	NaN	NaN	NaN	NaN	NaN	NaN	NaN	NaN	-1605.2	527.62	296.9	-1740.3	331.05	426.91	-1699.7	250.17	403.18	-1771.3	263.84	417.59	-1668	315.94	412.7	-1795.4	157.63	395.32	-1789	168.17	317.1	NaN	NaN	NaN	-1875.8	97.954	325.1	NaN	NaN	NaN	-1706.5	52.118	420.64	-1687.8	48.16	314.63	-1626.8	53.246	353	-1423.2	682.14	139.82	-1329.6	624.05	162.67	-1399.5	591.43	160.36	NaN	NaN	NaN	-1338.1	521.05	170.94	-1332.8	520.97	303	-1324.6	298.74	173.98	-1230.7	241.43	186.44	-1294.8	227.75	186.29	-1260.9	311.3	178.02	-1217.3	119.64	201.28	-1209.8	139.2	285.5	-1266.1	67.055	246.55	-1244.9	44.261	281.45	-1245.9	41.191	216.76	-1077.8	95.545	185.02	NaN	NaN	NaN	-1017.5	152.01	245.34	-1537.2	1494.8	341.78	-1622.6	1287.1	340
5	0.016667	NaN	NaN	NaN	-1438.1	1432.3	471.79	-1470	1458	174.44	-1483.3	1746.6	344.85	NaN	NaN	NaN	NaN	NaN	NaN	-1589.7	1030.4	344.74	-1586.3	1040.6	264	-1469.2	917.95	500.15	NaN	NaN	NaN	-1480.2	1078.4	478.79	NaN	NaN	NaN	-1610.4	1002.3	306.8	NaN	NaN	NaN	NaN	NaN	NaN	NaN	NaN	NaN	NaN	NaN	NaN	NaN	NaN	NaN	-1598.9	526.91	296.87	-1735.7	331.89	427.15	-1696.1	250.99	403.31	-1768	265.14	417.73	-1664.2	316.3	412.63	-1793.5	159.3	395.53	-1786.8	169.65	317.34	NaN	NaN	NaN	-1874.4	100.75	325.13	NaN	NaN	NaN	-1704.4	53.25	419.8	-1687.3	48.113	314.79	-1626.1	53.369	352.7	-1416.7	681.52	139.89	-1323	623.59	163.08	-1393.1	590.88	160.66	NaN	NaN	NaN	-1331.9	520.51	171.56	-1326.7	520.58	303.44	-1319.7	298.08	174.4	-1226.4	240.15	187.82	-1290.4	226.86	186.71	-1256.1	310.2	178.77	-1214	118.64	201.67	-1206.5	137.66	286.08	-1263	66.672	246.78	-1242.4	43.554	281.66	-1243.3	40.773	216.95	-1074.7	93.557	186.02	NaN	NaN	NaN	-1014.1	149.31	246.71	-1531.9	1494.2	341.25	-1617.1	1286.4	339.33
6	0.020833	NaN	NaN	NaN	-1432.9	1431.6	471.34	-1464.2	1457.5	173.96	-1477.9	1746	344.64	NaN	NaN	NaN	NaN	NaN	NaN	-1583.8	1029.7	344.37	-1580.3	1039.9	263.62	-1463.3	917.56	499.92	NaN	NaN	NaN	-1474.2	1077.8	478.45	NaN	NaN	NaN	-1604.4	1001.5	306.46	NaN	NaN	NaN	NaN	NaN	NaN	NaN	NaN	NaN	NaN	NaN	NaN	NaN	NaN	NaN	-1592.4	526.13	296.86	-1731	332.76	427.38	-1692.3	251.82	403.44	-1764.4	266.48	417.89	-1660.2	316.65	412.59	-1791.3	161.04	395.74	-1784.5	171.19	317.59	NaN	NaN	NaN	-1872.9	103.7	325.15	NaN	NaN	NaN	-1702.4	54.453	419.03	-1686.9	48.066	314.95	-1625.4	53.478	352.42	-1410.1	680.9	139.98	-1316.2	623.18	163.46	-1386.6	590.31	160.98	NaN	NaN	NaN	-1325.5	519.97	172.21	-1320.6	520.19	303.9	-1314.8	297.42	174.83	-1222.1	238.84	189.14	-1286.1	225.97	187.12	-1251.1	309.09	179.54	-1210.8	117.62	202.06	-1203.3	136.09	286.67	-1260.1	66.375	247.03	-1240	42.899	281.86	-1240.7	40.421	217.15	-1071.7	91.389	186.99	NaN	NaN	NaN	-1010.8	146.34	248.03	-1526.5	1493.6	340.7	-1611.4	1285.7	338.65
7	0.025	NaN	NaN	NaN	-1427.6	1431	470.87	-1458.2	1457	173.47	-1472.5	1745.5	344.42	NaN	NaN	NaN	NaN	NaN	NaN	-1577.7	1029	344	-1574.3	1039.1	263.24	-1457.3	917.16	499.66	NaN	NaN	NaN	-1468.2	1077.2	478.09	NaN	NaN	NaN	-1598.4	1000.8	306.1	NaN	NaN	NaN	NaN	NaN	NaN	NaN	NaN	NaN	NaN	NaN	NaN	NaN	NaN	NaN	-1585.7	525.29	296.87	-1726.2	333.66	427.61	-1688.3	252.66	403.58	-1760.7	267.84	418.07	-1656	317.01	412.58	-1789.1	162.84	395.95	-1782	172.78	317.85	NaN	NaN	NaN	-1871.2	106.8	325.15	NaN	NaN	NaN	-1700.4	55.713	418.35	-1686.4	48.023	315.11	-1624.8	53.57	352.16	-1403.4	680.28	140.1	-1309.2	622.82	163.78	-1380	589.73	161.33	NaN	NaN	NaN	-1319.1	519.44	172.88	-1314.3	519.81	304.38	-1309.8	296.78	175.25	-1217.7	237.5	190.4	-1281.7	225.08	187.52	-1246.2	307.98	180.34	-1207.6	116.6	202.44	-1200.2	134.5	287.26	-1257.3	66.171	247.28	-1237.8	42.306	282.07	-1238.4	40.142	217.34	-1068.8	89.048	187.91	NaN	NaN	NaN	-1007.4	143.11	249.29	-1521	1493	340.13	-1605.6	1285	337.94
8	0.029167	NaN	NaN	NaN	-1422.3	1430.4	470.38	-1452.2	1456.4	172.95	-1467.1	1744.9	344.2	NaN	NaN	NaN	NaN	NaN	NaN	-1571.6	1028.3	343.61	-1568.1	1038.3	262.85	-1451.1	916.75	499.39	NaN	NaN	NaN	-1462.1	1076.7	477.71	NaN	NaN	NaN	-1592.2	1000	305.74	NaN	NaN	NaN	NaN	NaN	NaN	NaN	NaN	NaN	NaN	NaN	NaN	NaN	NaN	NaN	-1578.7	524.37	296.9	-1721.1	334.58	427.83	-1684.2	253.51	403.73	-1756.8	269.22	418.25	-1651.5	317.36	412.6	-1786.6	164.71	396.17	-1779.4	174.43	318.12	NaN	NaN	NaN	-1869.4	110.04	325.13	NaN	NaN	NaN	-1698.5	57.01	417.77	-1685.9	47.986	315.26	-1624.3	53.643	351.92	-1396.7	679.67	140.25	-1301.9	622.51	164.05	-1373.4	589.16	161.7	NaN	NaN	NaN	-1312.5	518.92	173.56	-1308	519.45	304.88	-1304.8	296.16	175.66	-1213.4	236.16	191.58	-1277.3	224.21	187.9	-1241.2	306.87	181.15	-1204.4	115.58	202.82	-1197	132.92	287.84	-1254.5	66.067	247.54	-1235.6	41.782	282.28	-1236.2	39.941	217.54	-1066.1	86.549	188.77	NaN	NaN	NaN	-1004.1	139.62	250.46	-1515.5	1492.3	339.54	-1599.8	1284.2	337.22
9	0.033333	NaN	NaN	NaN	-1416.9	1429.8	469.87	-1446	1455.9	172.43	-1461.5	1744.4	343.98	NaN	NaN	NaN	NaN	NaN	NaN	-1565.4	1027.6	343.21	-1561.9	1037.6	262.44	-1444.8	916.33	499.09	NaN	NaN	NaN	-1455.9	1076.2	477.31	NaN	NaN	NaN	-1585.9	999.24	305.36	NaN	NaN	NaN	NaN	NaN	NaN	NaN	NaN	NaN	NaN	NaN	NaN	NaN	NaN	NaN	-1571.5	523.38	296.97	-1716	335.53	428.04	-1679.8	254.37	403.89	-1752.6	270.63	418.45	-1646.9	317.7	412.67	-1784	166.65	396.38	-1776.6	176.13	318.39	NaN	NaN	NaN	-1867.4	113.44	325.08	NaN	NaN	NaN	-1696.9	58.324	417.3	-1685.4	47.959	315.42	-1623.8	53.696	351.69	-1389.9	679.07	140.41	-1294.4	622.28	164.23	-1366.7	588.6	162.1	NaN	NaN	NaN	-1305.9	518.41	174.25	-1301.6	519.09	305.39	-1299.9	295.58	176.07	-1209	234.81	192.68	-1273	223.36	188.27	-1236.2	305.77	181.97	-1201.3	114.57	203.18	-1194	131.34	288.42	-1252	66.065	247.81	-1233.7	41.335	282.48	-1234.1	39.823	217.74	-1063.5	83.911	189.57	NaN	NaN	NaN	-1000.9	135.9	251.55	-1509.8	1491.7	338.93	-1593.9	1283.5	336.48
10	0.0375	NaN	NaN	NaN	-1411.6	1429.2	469.36	-1439.8	1455.4	171.89	-1456	1743.9	343.76	NaN	NaN	NaN	NaN	NaN	NaN	-1559.2	1026.9	342.81	-1555.7	1036.8	262.03	-1438.4	915.91	498.78	NaN	NaN	NaN	-1449.7	1075.7	476.89	NaN	NaN	NaN	-1579.6	998.49	304.98	NaN	NaN	NaN	NaN	NaN	NaN	NaN	NaN	NaN	NaN	NaN	NaN	NaN	NaN	NaN	-1564	522.32	297.07	-1710.6	336.51	428.25	-1675.3	255.23	404.06	-1748.2	272.05	418.66	-1642.1	318.03	412.78	-1781.2	168.65	396.6	-1773.5	177.88	318.66	NaN	NaN	NaN	-1865.3	117	325.01	NaN	NaN	NaN	-1695.3	59.633	416.92	-1684.9	47.948	315.57	-1623.4	53.726	351.49	-1383.1	678.48	140.6	-1286.8	622.14	164.33	-1360	588.04	162.5	NaN	NaN	NaN	-1299.2	517.93	174.95	-1295.3	518.75	305.9	-1294.9	295.04	176.48	-1204.7	233.48	193.71	-1268.7	222.55	188.63	-1231.2	304.7	182.8	-1198.3	113.58	203.54	-1191	129.78	288.98	-1249.5	66.163	248.09	-1231.9	40.966	282.69	-1232.3	39.786	217.93	-1061	81.159	190.29	NaN	NaN	NaN	-997.77	131.98	252.53	-1504.2	1491.1	338.31	-1587.9	1282.7	335.72
